<svg width="19" height="28" viewBox="0 0 19 28" fill="none" xmlns="http://www.w3.org/2000/svg">
<path d="M0 28V0H14.48C15.0667 0 15.6133 0.106667 16.12 0.320001C16.6267 0.533334 17.0667 0.840001 17.44 1.24C17.84 1.61333 18.1467 2.05333 18.36 2.56C18.5733 3.06667 18.68 3.61333 18.68 4.2V23.8C18.68 24.3867 18.5733 24.9333 18.36 25.44C18.1467 25.9467 17.84 26.3867 17.44 26.76C17.0667 27.1333 16.6267 27.44 16.12 27.68C15.6133 27.8933 15.0667 28 14.48 28H0ZM8.16 2.32V25.68H10.52V2.32H8.16Z" fill="black"/>
</svg>
