<svg width="109" height="28" viewBox="0 0 109 28" fill="none" xmlns="http://www.w3.org/2000/svg">
<path d="M0.278125 28V-1.90735e-06H14.7581C15.3448 -1.90735e-06 15.8915 0.106665 16.3981 0.319999C16.9048 0.533333 17.3448 0.839999 17.7181 1.24C18.1181 1.61333 18.4248 2.05333 18.6381 2.56C18.8515 3.06667 18.9581 3.61333 18.9581 4.2V23.8C18.9581 24.3867 18.8515 24.9333 18.6381 25.44C18.4248 25.9467 18.1181 26.3867 17.7181 26.76C17.3448 27.1333 16.9048 27.44 16.3981 27.68C15.8915 27.8933 15.3448 28 14.7581 28H0.278125ZM8.43813 2.32V25.68H10.7981V2.32H8.43813ZM25.3719 -1.90735e-06H33.5319V28H25.3719V-1.90735e-06ZM41.3188 -1.90735e-06H57.1988C57.5721 -1.90735e-06 57.8921 0.146665 58.1588 0.44C58.4521 0.706666 58.5988 1.02667 58.5988 1.4V8.16H50.4388V2.32H48.0788V25.68H50.4388V12.84H49.2388V10.48H57.1988C57.5721 10.48 57.8921 10.6267 58.1588 10.92C58.4521 11.1867 58.5988 11.5067 58.5988 11.88V26.6C58.5988 26.9733 58.4521 27.3067 58.1588 27.6C57.8921 27.8667 57.5721 28 57.1988 28H41.3188C40.9454 28 40.6121 27.8667 40.3188 27.6C40.0521 27.3067 39.9188 26.9733 39.9188 26.6V1.4C39.9188 1.02667 40.0521 0.706666 40.3188 0.44C40.6121 0.146665 40.9454 -1.90735e-06 41.3188 -1.90735e-06ZM65.0125 -1.90735e-06H73.1725V28H65.0125V-1.90735e-06ZM79.5594 28V-1.90735e-06H92.7594C93.1327 -1.90735e-06 93.4527 0.146665 93.7194 0.44C94.0127 0.706666 94.1594 1.02667 94.1594 1.4C94.1594 1.02667 94.2927 0.706666 94.5594 0.44C94.826 0.146665 95.1594 -1.90735e-06 95.5594 -1.90735e-06H107.319C107.719 -1.90735e-06 108.053 0.146665 108.319 0.44C108.586 0.706666 108.719 1.02667 108.719 1.4V28H100.559V2.32H98.2394V28H90.0794V2.32H87.7194V28H79.5594Z" fill="black"/>
</svg>
