<svg width="561" height="460" viewBox="0 0 561 460" fill="none" xmlns="http://www.w3.org/2000/svg">
<rect width="561" height="460" fill="#1E1E1E"/>
<g clip-path="url(#clip0_0_1)">
<rect width="1920" height="9151" transform="translate(-998 -242)" fill="white"/>
<g clip-path="url(#clip1_0_1)">
<path d="M283.955 419.861L301.556 414.675L296.42 432.326L301.556 449.927L283.955 444.792L266.304 449.927L271.49 432.326L266.304 414.675L283.955 419.861Z" fill="black" stroke="white" stroke-miterlimit="10"/>
</g>
<g clip-path="url(#clip2_0_1)">
<path d="M97.9036 332.835L129.38 349.985L97.9036 367.273L80.6848 398.68L63.466 367.273L31.99 349.985L63.466 332.835L80.6848 301.291L97.9036 332.835Z" fill="black" stroke="white" stroke-miterlimit="10"/>
</g>
<path d="M537.536 376.659C535.637 380.103 532.099 382.594 527.003 384.139C521.905 385.685 515.293 386.269 507.332 385.926C491.412 385.239 470.21 380.85 445.196 373.194C395.175 357.884 330.013 329.542 261.574 291.791C193.134 254.041 134.401 214.043 94.7686 179.901C74.9491 162.827 59.927 147.235 50.8534 134.136C46.316 127.585 43.2827 121.681 41.8708 116.544C40.4596 111.41 40.6793 107.089 42.5789 103.645C44.4785 100.201 48.0168 97.7097 53.1121 96.1646C58.2099 94.6188 64.8219 94.035 72.7832 94.3784C88.7037 95.0652 109.905 99.4539 134.92 107.11C184.94 122.42 250.102 150.762 318.542 188.513C386.981 226.263 445.714 266.261 485.347 300.403C505.166 317.477 520.188 333.069 529.262 346.168C533.799 352.719 536.833 358.623 538.245 363.76C539.656 368.894 539.436 373.215 537.536 376.659Z" stroke="black"/>
<path d="M517.306 413.333C515.406 416.777 511.868 419.268 506.773 420.813C501.675 422.359 495.063 422.943 487.102 422.599C471.181 421.913 449.979 417.524 424.965 409.868C374.945 394.558 309.783 366.216 241.343 328.465C172.904 290.715 114.171 250.717 74.5381 216.575C54.7187 199.501 39.6966 183.909 30.6229 170.81C26.0855 164.259 23.0522 158.355 21.6403 153.218C20.2292 148.084 20.4488 143.762 22.3484 140.319C24.248 136.875 27.7863 134.384 32.8816 132.838C37.9794 131.293 44.5915 130.709 52.5528 131.052C68.4733 131.739 89.675 136.128 114.689 143.784C164.71 159.094 229.872 187.436 298.311 225.186C366.75 262.937 425.484 302.934 465.116 337.077C484.936 354.15 499.958 369.742 509.031 382.842C513.569 389.393 516.602 395.297 518.014 400.434C519.425 405.568 519.206 409.889 517.306 413.333Z" stroke="black"/>
<path d="M497.077 450.007C495.178 453.451 491.64 455.942 486.544 457.488C481.446 459.033 474.834 459.617 466.873 459.274C450.953 458.587 429.751 454.198 404.737 446.542C354.716 431.232 289.554 402.89 221.115 365.139C152.675 327.389 93.9423 287.392 54.3096 253.249C34.4901 236.176 19.468 220.584 10.3944 207.484C5.85703 200.933 2.82367 195.029 1.41182 189.892C0.000647167 184.758 0.220302 180.437 2.11989 176.993C4.01947 173.549 7.55777 171.058 12.6531 169.513C17.7509 167.967 24.363 167.383 32.3242 167.727C48.2448 168.413 69.4465 172.802 94.4607 180.458C144.481 195.768 209.643 224.11 278.083 261.861C346.522 299.611 405.255 339.609 444.888 373.751C464.707 390.825 479.729 406.417 488.803 419.516C493.34 426.067 496.374 431.971 497.786 437.108C499.197 442.242 498.977 446.564 497.077 450.007Z" stroke="black"/>
<circle cx="104.456" cy="91.8262" r="15.5" fill="#C797FF"/>
<circle cx="393.956" cy="422.326" r="10" fill="#C797FF"/>
<circle cx="54.4563" cy="51.8262" r="23.5" fill="black"/>
<path d="M278.928 370.916C272.624 373.07 265.42 368.801 262.914 361.397L223.915 247.136L246.704 239.341L285.741 353.759C288.247 361.084 285.193 368.761 278.928 370.916Z" fill="black"/>
<path d="M275.522 372.326C273.681 372.326 271.802 371.895 270.001 370.994C266.359 369.192 263.462 365.824 262.052 361.672L223.054 247.41C222.897 246.979 223.132 246.47 223.602 246.313L246.39 238.518C246.625 238.44 246.86 238.44 247.056 238.557C247.252 238.675 247.408 238.831 247.487 239.066L286.524 353.485C289.148 361.241 285.859 369.427 279.163 371.738C278.028 372.13 276.775 372.326 275.522 372.326ZM225.011 247.684L263.736 361.123C264.989 364.844 267.573 367.9 270.784 369.467C273.368 370.72 276.148 370.955 278.654 370.093C284.449 368.096 287.268 360.888 284.919 354.033L246.155 240.437L225.011 247.684Z" fill="black"/>
<path d="M242.67 140.708L168.941 193.315L140.24 223.124L128.963 243.062L128.924 243.218C126.692 246.665 127.984 254.617 132.174 262.726C136.285 270.716 142.08 276.279 146.152 276.592L146.035 276.67L167.688 279.021L208.213 272.557L294.237 241.769L401.17 260.101L401.914 260.14C375.054 255.126 338.796 219.207 312.445 168.402C286.132 117.636 277.753 67.4582 289.304 42.7021H289.265L243.257 139.454L242.67 140.708Z" fill="#C797FF"/>
<path d="M419.685 257.929C446.113 244.199 441.003 181.955 408.271 118.903C375.54 55.8511 327.583 15.8676 301.155 29.5975C274.728 43.3275 279.838 105.572 312.569 168.624C345.3 231.676 393.258 271.659 419.685 257.929Z" fill="white"/>
<path d="M408.062 261.511C396.551 261.511 382.69 255.087 367.772 242.592C347.45 225.592 327.52 199.386 311.662 168.755C287.66 122.376 277.754 74.8226 286.446 47.5987C289.344 38.5111 294.199 32.1654 300.816 28.7575C313.972 22.0201 332.493 27.739 353.01 44.8959C373.332 61.8961 393.262 88.1015 409.119 118.733C433.161 165.112 443.067 212.665 434.335 239.889C431.438 248.977 426.583 255.322 419.965 258.73C416.402 260.611 412.408 261.511 408.062 261.511ZM312.798 27.739C308.765 27.739 305.006 28.5616 301.638 30.3243C295.413 33.4972 290.871 39.5295 288.13 48.1863C279.555 75.0184 289.422 122.063 313.228 168.05C345.649 230.606 393.183 270.638 419.222 257.281C425.447 254.108 429.989 248.076 432.73 239.419C441.305 212.587 431.438 165.543 407.632 119.556C379.401 65.1082 339.776 27.739 312.798 27.739Z" fill="black"/>
<path d="M408.062 261.511C396.55 261.511 382.689 255.087 367.771 242.592C347.45 225.592 327.52 199.386 311.662 168.755C287.66 122.376 277.753 74.8225 286.446 47.5986C289.343 38.511 294.199 32.1653 300.816 28.7574C309.626 24.2136 321.137 25.3495 334.098 32.0086C346.51 38.3935 359.94 49.7139 373.018 64.7164C373.331 65.0689 373.292 65.6173 372.94 65.9307C372.587 66.244 372.039 66.2049 371.726 65.8523C345.179 35.3773 318.318 21.7458 301.638 30.3242C295.412 33.4971 290.87 39.5294 288.13 48.1862C279.555 75.0183 289.422 122.063 313.228 168.049C341.42 222.458 381.084 259.866 408.023 259.866C412.056 259.866 415.815 259.044 419.182 257.281C425.408 254.108 429.95 248.076 432.691 239.419C441.266 212.587 431.399 165.542 407.592 119.556C400.505 105.846 392.517 92.9587 383.942 81.2465C383.668 80.8548 383.747 80.3064 384.138 80.0322C384.53 79.758 385.078 79.8364 385.352 80.2281C394.005 92.0185 401.993 104.984 409.158 118.772C433.161 165.112 443.067 212.665 434.335 239.889C431.438 248.977 426.582 255.322 419.965 258.73C416.402 260.61 412.408 261.511 408.062 261.511Z" fill="black"/>
<path d="M359.723 177.665C365.845 174.484 364.668 160.077 357.093 145.485C349.518 130.893 338.414 121.642 332.292 124.823C326.17 128.004 327.347 142.411 334.922 157.003C342.497 171.595 353.601 180.845 359.723 177.665Z" fill="#C797FF"/>
<path d="M357.043 179.174C350.309 179.174 340.911 170.478 334.138 157.356C328.499 146.466 326.189 135.263 328.264 128.8C329.008 126.528 330.222 124.922 331.906 124.06C338.562 120.653 349.956 129.936 357.866 145.174C363.504 156.063 365.814 167.266 363.739 173.729C362.995 176.001 361.781 177.607 360.098 178.469C359.158 178.939 358.14 179.174 357.043 179.174ZM334.96 125.04C334.138 125.04 333.355 125.196 332.689 125.549C331.397 126.215 330.457 127.468 329.87 129.309C327.951 135.342 330.183 146.075 335.626 156.572C342.83 170.478 353.676 179.84 359.275 176.941C360.567 176.275 361.507 175.022 362.094 173.181C364.013 167.109 361.742 156.416 356.339 145.918C349.996 133.736 340.911 125.04 334.96 125.04Z" fill="#C797FF"/>
<path d="M402.111 246.9C392.009 246.9 379.871 241.26 366.793 230.331C349.016 215.446 331.553 192.492 317.692 165.699C296.666 125.118 288.013 83.4791 295.609 59.624C298.154 51.6331 302.422 46.0708 308.256 43.0547C321.647 36.1998 341.342 44.1123 362.329 64.7554C362.682 65.1079 362.682 65.6172 362.329 65.9697C361.977 66.3223 361.468 66.3223 361.115 65.9697C340.676 45.875 321.686 38.0408 309.039 44.5824C303.636 47.3635 299.681 52.5732 297.253 60.1332C289.775 83.5575 298.389 124.687 319.219 164.916C343.848 212.508 378.5 245.177 402.072 245.177C405.596 245.177 408.846 244.433 411.821 242.944C417.225 240.163 421.18 234.953 423.607 227.393C431.086 203.969 422.472 162.84 401.641 122.611C395.337 110.468 388.289 99.0692 380.693 88.7672C380.419 88.3755 380.497 87.8271 380.889 87.5529C381.28 87.2787 381.829 87.3571 382.103 87.7488C389.777 98.1683 396.864 109.606 403.207 121.828C424.234 162.409 432.887 204.047 425.291 227.903C422.746 235.893 418.478 241.456 412.644 244.472C409.433 246.078 405.909 246.9 402.111 246.9Z" fill="black"/>
<path d="M167.728 279.843C167.688 279.843 167.649 279.843 167.649 279.843L145.996 277.493C145.879 277.493 145.761 277.454 145.644 277.376C141.18 276.671 135.542 271.03 131.431 263.117C127.045 254.774 125.753 246.626 128.142 242.788L128.181 242.67L139.457 222.693C139.497 222.615 139.536 222.576 139.575 222.536L168.276 192.727C168.315 192.688 168.354 192.649 168.393 192.61L241.927 140.121L288.443 42.3107C288.561 42.1148 288.717 41.9581 288.952 41.8798C289.187 41.8015 289.422 41.8015 289.618 41.919C290.049 42.1148 290.244 42.624 290.049 43.0549C278.263 68.3202 287.582 118.537 313.189 167.971C338.836 217.483 374.585 254.147 402.111 259.2C402.542 259.279 402.855 259.67 402.816 260.14C402.776 260.571 402.385 260.885 401.954 260.924L401.21 260.885C401.171 260.885 401.132 260.885 401.093 260.885L294.356 242.592L208.527 273.302C208.488 273.302 208.41 273.341 208.371 273.341L167.845 279.804C167.806 279.843 167.767 279.843 167.728 279.843ZM146.623 275.848L167.728 278.12L208.057 271.657L294.042 240.908C294.199 240.868 294.316 240.829 294.473 240.868L390.56 257.32C364.6 245.921 334.255 212.274 311.741 168.794C289.383 125.627 279.398 81.795 284.88 54.1011L243.454 141.061C243.375 141.178 243.297 141.296 243.18 141.374L169.529 193.981L140.945 223.633L129.669 243.61C129.669 243.649 129.63 243.689 129.63 243.689C127.593 246.862 128.964 254.696 132.919 262.334C136.795 269.816 142.394 275.456 146.231 275.731C146.388 275.731 146.505 275.77 146.623 275.848Z" fill="black"/>
<path d="M242.787 140.395L289.264 42.6631H289.303C277.752 67.4191 286.171 117.597 312.444 168.363C338.795 219.207 375.053 255.126 401.992 260.062L401.248 260.023L294.471 241.73L292.005 241.299C279.592 239.106 263.03 222.967 251.166 199.935C238.989 176.314 236.835 152.773 242.238 141.57L242.787 140.395Z" fill="white"/>
<path d="M401.992 260.924C401.953 260.924 401.992 260.924 401.992 260.924L401.209 260.885C401.17 260.885 401.131 260.885 401.092 260.885L294.315 242.592L291.848 242.161C278.731 239.85 262.09 223.045 250.383 200.365C237.109 174.591 236.444 151.637 241.456 141.217L242.043 140.042L288.52 42.3497C288.638 42.1539 288.794 41.9972 289.029 41.9189C289.264 41.8405 289.499 41.8405 289.695 41.958C290.126 42.1539 290.321 42.6631 290.126 43.094C278.34 68.3593 287.659 118.576 313.266 168.01C338.913 217.522 374.662 254.186 402.188 259.239C402.619 259.318 402.932 259.71 402.893 260.18C402.775 260.571 402.423 260.924 401.992 260.924ZM284.8 54.101L243.57 140.786L242.983 141.962C238.01 152.303 239.459 175.414 251.91 199.543C263.383 221.792 279.554 238.244 292.162 240.437L294.628 240.868L390.52 257.32C364.56 245.921 334.214 212.273 311.7 168.794C289.342 125.627 279.358 81.7949 284.8 54.101Z" fill="black"/>
<path d="M166.552 279.726C166.513 279.726 166.474 279.726 166.474 279.726L145.957 277.532C145.839 277.532 145.722 277.493 145.604 277.415C141.141 276.71 135.502 271.069 131.391 263.156C127.045 254.774 125.753 246.626 128.141 242.788L128.18 242.67L139.457 222.693C139.692 222.262 140.201 222.144 140.632 222.38C141.062 222.615 141.18 223.124 140.945 223.555L129.668 243.61C129.668 243.649 129.629 243.689 129.629 243.689C127.593 246.861 128.963 254.696 132.918 262.334C136.794 269.816 142.394 275.456 146.231 275.73C146.348 275.73 146.505 275.77 146.583 275.848L166.631 278.002C167.101 278.041 167.453 278.472 167.375 278.942C167.336 279.373 166.983 279.726 166.552 279.726Z" fill="black"/>
<path d="M167.923 278.864C161.266 278.394 151.947 268.954 145.173 255.91C138.008 242.083 136.324 227.785 140.71 222.693L129.002 243.062L128.924 243.219C126.692 246.666 127.984 254.617 132.174 262.726C136.285 270.717 142.08 276.279 146.152 276.592L146.035 276.671L167.923 278.864Z" fill="white"/>
<path d="M167.923 279.726C167.884 279.726 167.884 279.726 167.845 279.726C167.688 279.726 167.492 279.687 167.336 279.687L145.957 277.532C145.839 277.532 145.722 277.493 145.604 277.415C141.141 276.71 135.502 271.069 131.391 263.157C127.045 254.774 125.753 246.627 128.141 242.788L128.18 242.67L138.478 224.73C138.87 223.711 139.379 222.811 140.005 222.066C140.279 221.714 140.788 221.675 141.141 221.91C141.493 222.184 141.611 222.654 141.376 223.046L139.927 225.513C137.617 231.742 139.888 243.963 145.839 255.401C152.3 267.896 161.11 277.023 167.414 277.846L167.884 277.885C168.354 277.924 168.706 278.355 168.667 278.825C168.706 279.373 168.354 279.726 167.923 279.726ZM146.583 275.848L161.541 277.376C155.785 273.694 149.442 266.094 144.391 256.302C139.496 246.862 137.069 237.069 137.46 230.018L129.668 243.61C129.668 243.649 129.629 243.689 129.629 243.689C127.593 246.862 128.963 254.696 132.918 262.334C136.794 269.816 142.394 275.456 146.231 275.731C146.348 275.731 146.505 275.77 146.583 275.848Z" fill="black"/>
<path d="M206.764 272.714L208.487 272.361C199.168 274.32 184.446 260.218 174.07 240.202C163.458 219.755 161.462 199.347 168.979 193.314L168 194.294L140.788 222.575C136.324 227.589 137.968 241.965 145.173 255.871C152.103 269.267 161.931 278.825 168.627 278.786L206.764 272.714Z" fill="black"/>
<path d="M168.589 279.687C161.462 279.687 151.556 270.09 144.391 256.302C137.108 242.2 135.267 227.472 140.123 222.027L166.827 194.294C167.296 193.667 167.845 193.119 168.432 192.649C168.784 192.374 169.293 192.414 169.607 192.727C169.92 193.08 169.92 193.589 169.607 193.902L168.08 195.508C162.637 202.794 165.339 221.439 174.853 239.811C185.112 259.631 199.443 273.223 208.214 271.578L208.331 271.539C208.801 271.461 209.232 271.735 209.349 272.205C209.428 272.675 209.153 273.106 208.684 273.223C208.644 273.223 208.605 273.223 208.566 273.263L206.961 273.576H206.922L168.784 279.647C168.706 279.647 168.628 279.687 168.589 279.687ZM164.556 199.151L141.415 223.202C137.108 228.059 139.066 242.239 145.957 255.518C152.692 268.523 162.206 277.924 168.589 277.963L202.262 272.597C193.178 269.385 181.98 257.281 173.326 240.633C165.104 224.769 161.932 208.63 164.556 199.151Z" fill="black"/>
<path d="M332.297 124.805C326.15 127.938 327.051 142.471 334.882 156.964C347.999 181.211 358.453 178.351 359.667 177.921C359.706 177.921 359.706 177.96 359.667 177.96L337.153 196.096C330.535 186.812 324.231 176.471 318.436 165.307C312.916 154.614 308.256 143.959 304.575 133.618L332.297 124.805Z" fill="black"/>
<path d="M337.152 196.958C337.113 196.958 337.074 196.958 337.035 196.958C336.8 196.918 336.604 196.801 336.448 196.605C329.674 187.087 323.37 176.667 317.692 165.738C312.25 155.241 307.551 144.547 303.792 133.971C303.714 133.736 303.714 133.501 303.831 133.305C303.949 133.109 304.105 132.952 304.34 132.874L332.062 124.06C332.493 123.943 332.963 124.139 333.119 124.57C333.276 125.001 333.119 125.471 332.728 125.666C331.397 126.332 330.418 127.664 329.83 129.623C327.912 135.773 330.261 146.662 335.704 156.651C348.507 180.31 358.375 177.607 359.432 177.215C359.823 177.059 360.293 177.255 360.489 177.607C360.685 177.96 360.606 178.469 360.293 178.743L337.701 196.762C337.544 196.879 337.348 196.958 337.152 196.958ZM305.711 134.167C309.43 144.39 313.972 154.731 319.219 164.916C324.701 175.492 330.809 185.559 337.348 194.842L356.887 179.096C352.423 178.9 344.005 175.57 334.137 157.356C328.421 146.819 326.071 135.694 328.147 128.996C328.421 128.134 328.734 127.39 329.126 126.685L305.711 134.167Z" fill="black"/>
<path d="M448.143 68.9236C466.043 59.5199 472.966 37.442 463.606 19.6114C454.247 1.7807 432.148 -5.0507 414.248 4.35299C396.348 13.7567 389.425 35.8345 398.784 53.6652C408.144 71.4958 430.242 78.3273 448.143 68.9236Z" fill="black"/>
<path d="M414.523 28.5614C416.246 26.2111 418.791 24.7618 421.689 24.4484C423.882 24.2134 425.918 24.6834 427.836 25.8586C428.815 26.4461 429.677 27.1904 430.499 28.0913C431.086 27.0337 431.791 26.0936 432.613 25.3102C434.219 23.7433 436.137 22.8424 438.291 22.6074C441.188 22.294 444.007 23.1558 446.2 25.0752C448.354 26.9554 449.724 29.6973 450.076 32.7918C450.429 35.9647 449.567 39.02 447.375 42.3887C445.417 45.4049 442.441 48.5386 438.996 52.2206C437.821 53.4741 436.49 54.8843 435.119 56.3728C434.767 56.7645 434.258 57.0387 433.71 57.0779C433.161 57.1562 432.652 56.9995 432.183 56.6861C430.499 55.511 428.893 54.4142 427.484 53.4741C423.333 50.6538 419.731 48.2252 417.147 45.7183C414.249 42.9371 412.762 40.1168 412.409 36.944C412.096 33.8495 412.84 30.8725 414.523 28.5614Z" fill="white"/>
<path d="M549.691 70.9185C562.796 57.8089 562.796 36.5541 549.691 23.4445C536.587 10.3349 515.341 10.3349 502.236 23.4445C489.132 36.5541 489.132 57.8089 502.236 70.9185C515.341 84.0281 536.587 84.0281 549.691 70.9185Z" fill="#C797FF"/>
<path d="M525.958 81.5992C507.007 81.5992 491.54 66.1658 491.54 47.1679C491.54 28.2091 506.967 12.7366 525.958 12.7366C544.948 12.7366 560.375 28.1699 560.375 47.1679C560.375 66.1266 544.948 81.5992 525.958 81.5992ZM525.958 14.4601C507.946 14.4601 493.263 29.11 493.263 47.1679C493.263 65.1865 507.907 79.8756 525.958 79.8756C543.969 79.8756 558.652 65.2257 558.652 47.1679C558.652 29.1492 544.008 14.4601 525.958 14.4601Z" fill="#C797FF"/>
<path d="M535.041 50.4975C533.162 50.4975 531.517 51.3984 530.421 52.8086L519.105 48.3823C519.105 48.2256 519.144 48.1081 519.144 47.9514C519.144 47.6772 519.105 47.403 519.066 47.1288L530.656 41.7624C531.713 42.9767 533.279 43.7601 535.041 43.7993C538.252 43.7993 540.915 41.1748 540.915 37.9236C540.915 34.6724 538.291 32.0088 535.041 32.0088C531.831 32.0088 529.168 34.6332 529.168 37.8844C529.168 38.1586 529.207 38.4328 529.246 38.707L517.656 44.0734C516.599 42.8591 515.033 42.0757 513.271 42.0366C510.06 42.0366 507.398 44.661 507.398 47.9122C507.398 51.1634 510.021 53.827 513.271 53.827C515.15 53.827 516.795 52.9261 517.891 51.5159L529.207 55.9423C529.207 56.0989 529.168 56.2165 529.168 56.3731C529.168 59.6243 531.791 62.288 535.041 62.288C538.252 62.288 540.915 59.6635 540.915 56.4123C540.875 53.1611 538.252 50.5367 535.041 50.4975Z" fill="black"/>
<path d="M535.486 177.319C550.852 166.648 554.713 145.609 544.109 130.325C533.504 115.041 512.451 111.301 497.084 121.971C481.718 132.641 477.857 153.681 488.461 168.965C499.066 184.249 520.119 187.989 535.486 177.319Z" fill="black"/>
<path d="M507.831 165.699L502.897 138.945C502.662 137.574 503.915 136.438 505.246 136.791L534.417 145.056C535.905 145.487 536.257 147.406 535.043 148.346L510.767 166.835C509.71 167.697 508.105 167.109 507.831 165.699Z" fill="white"/>
<path d="M515.954 286.908C534.931 277.666 542.871 254.879 533.69 236.012C524.509 217.145 501.682 209.342 482.706 218.583C463.73 227.825 455.79 250.612 464.971 269.479C474.152 288.346 496.978 296.149 515.954 286.908Z" fill="#C797FF"/>
<path d="M499.137 291.673C495.065 291.673 490.914 291.046 486.881 289.675C477.014 286.385 469.026 279.491 464.406 270.168C459.786 260.885 459.081 250.348 462.409 240.476C469.3 220.147 491.462 209.061 511.862 215.838C521.729 219.128 529.717 226.022 534.337 235.345C538.958 244.629 539.662 255.166 536.334 265.037C530.774 281.332 515.464 291.673 499.137 291.673ZM499.528 215.603C483.905 215.603 469.261 225.474 463.975 241.064C460.804 250.504 461.469 260.571 465.894 269.424C470.318 278.316 477.954 284.936 487.39 288.069C506.889 294.532 528.072 283.956 534.65 264.527C537.822 255.087 537.156 245.02 532.732 236.168C528.307 227.276 520.672 220.656 511.236 217.522C507.359 216.19 503.405 215.603 499.528 215.603Z" fill="black"/>
<path d="M518.794 246.587C518.402 256.106 502.31 278.355 498.472 283.565C498.081 284.113 497.259 284.074 496.906 283.486C494.479 279.569 486.452 266.408 482.262 255.753C480.578 251.523 479.521 247.684 479.639 244.981C480.069 234.17 489.193 225.748 499.999 226.179C510.806 226.688 519.225 235.776 518.794 246.587Z" fill="black"/>
<path d="M505.549 252.153C509.051 248.65 509.051 242.97 505.549 239.467C502.047 235.964 496.37 235.964 492.869 239.467C489.367 242.97 489.367 248.65 492.869 252.153C496.37 255.656 502.047 255.656 505.549 252.153Z" fill="#C797FF"/>
</g>
<defs>
<clipPath id="clip0_0_1">
<rect width="1920" height="9151" fill="white" transform="translate(-998 -242)"/>
</clipPath>
<clipPath id="clip1_0_1">
<rect width="36" height="36" fill="white" transform="translate(265.956 414.326)"/>
</clipPath>
<clipPath id="clip2_0_1">
<rect width="70.3259" height="70.3259" fill="white" transform="translate(80.6848 300.326) rotate(45)"/>
</clipPath>
</defs>
</svg>
